<svg xmlns="http://www.w3.org/2000/svg" viewBox="0 0 461.432 461.432" style="enable-background:new 0 0 461.432 461.432" xml:space="preserve"><path d="M125.896 398.928c0 33.683-27.308 60.999-61.022 60.999-33.684 0-61.006-27.316-61.006-60.999 0-33.729 27.322-61.038 61.006-61.038 33.714 0 61.022 27.308 61.022 61.038zM0 229.636c0 8.441 6.606 15.379 15.036 15.809 60.318 3.076 100.885 25.031 138.248 62.582 36.716 36.864 60.071 89.759 64.082 137.769.686 8.202 7.539 14.524 15.77 14.524h56.701c4.344 0 8.498-1.784 11.488-4.935a15.852 15.852 0 0 0 4.333-11.729c-8.074-158.152-130.669-278.332-289.013-286.23a15.846 15.846 0 0 0-11.709 4.344A15.848 15.848 0 0 0 0 173.247v56.389z"/><path d="M0 73.411c0 8.51 6.713 15.482 15.216 15.819 194.21 7.683 350.315 161.798 358.098 355.879.34 8.491 7.32 15.208 15.818 15.208h56.457c4.297 0 8.408-1.744 11.393-4.834a15.857 15.857 0 0 0 4.441-11.552C453.181 199.412 261.024 9.27 16.38 1.121A15.844 15.844 0 0 0 4.838 5.568 15.842 15.842 0 0 0 0 16.954v56.457z"/></svg>